HIERARCHY
ROOT root
{
	OFFSET 0.000000 0.000000 0.000000
	CHANNELS 6 Xposition Yposition Zposition Zrotation Yrotation Xrotation
	JOINT lhip
	{
		OFFSET 0.058581 -0.082280 -0.017664
		CHANNELS 3 Zrotation Yrotation Xrotation
		JOINT lknee
		{
			OFFSET 0.043451 -0.386469 0.008037
			CHANNELS 3 Zrotation Yrotation Xrotation
			JOINT lankle
			{
				OFFSET -0.014790 -0.426874 -0.037428
				CHANNELS 3 Zrotation Yrotation Xrotation
				JOINT ltoe
				{
					OFFSET 0.041054 -0.060286 0.122042
					CHANNELS 3 Zrotation Yrotation Xrotation
					End Site
					{
						OFFSET 0.000000 0.000000 0.000000
					}
				}
			}
		}
	}
	JOINT rhip
	{
		OFFSET -0.060310 -0.090513 -0.013543
		CHANNELS 3 Zrotation Yrotation Xrotation
		JOINT rknee
		{
			OFFSET -0.043257 -0.383688 -0.004843
			CHANNELS 3 Zrotation Yrotation Xrotation
			JOINT rankle
			{
				OFFSET 0.019056 -0.420046 -0.034562
				CHANNELS 3 Zrotation Yrotation Xrotation
				JOINT rtoe
				{
					OFFSET -0.034840 -0.062106 0.130323
					CHANNELS 3 Zrotation Yrotation Xrotation
					End Site
					{
						OFFSET 0.000000 0.000000 0.000000
					}
				}
			}
		}
	}
	JOINT lowerback
	{
		OFFSET 0.004439 0.124404 -0.038385
		CHANNELS 3 Zrotation Yrotation Xrotation
		JOINT upperback
		{
			OFFSET 0.004488 0.137956 0.026820
			CHANNELS 3 Zrotation Yrotation Xrotation
			JOINT chest
			{
				OFFSET -0.002265 0.056032 0.002855
				CHANNELS 3 Zrotation Yrotation Xrotation
				JOINT lowerneck
				{
					OFFSET -0.013390 0.211636 -0.033468
					CHANNELS 3 Zrotation Yrotation Xrotation
					JOINT upperneck
					{
						OFFSET 0.010113 0.088937 0.050410
						CHANNELS 3 Zrotation Yrotation Xrotation
						End Site
						{
							OFFSET 0.000000 0.000000 0.000000
						}
					}
				}
				JOINT lclavicle
				{
					OFFSET 0.071702 0.114000 -0.018898
					CHANNELS 3 Zrotation Yrotation Xrotation
					JOINT lshoulder
					{
						OFFSET 0.122921 0.045205 -0.019046
						CHANNELS 3 Zrotation Yrotation Xrotation
						JOINT lelbow
						{
							OFFSET 0.255332 -0.015649 -0.022946
							CHANNELS 3 Zrotation Yrotation Xrotation
							JOINT lwrist
							{
								OFFSET 0.265709 0.012698 -0.007375
								CHANNELS 3 Zrotation Yrotation Xrotation
								End Site
								{
									OFFSET 0.000000 0.000000 0.000000
								}
							}
						}
					}
				}
				JOINT rclavicle
				{
					OFFSET -0.082954 0.112472 -0.023707
					CHANNELS 3 Zrotation Yrotation Xrotation
					JOINT rshoulder
					{
						OFFSET -0.113228 0.046853 -0.008472
						CHANNELS 3 Zrotation Yrotation Xrotation
						JOINT relbow
						{
							OFFSET -0.260127 -0.014369 -0.031269
							CHANNELS 3 Zrotation Yrotation Xrotation
							JOINT rwrist
							{
								OFFSET -0.269108 0.006794 -0.006027
								CHANNELS 3 Zrotation Yrotation Xrotation
								End Site
								{
									OFFSET 0.000000 0.000000 0.000000
								}
							}
						}
					}
				}
			}
		}
	}
}
MOTION
Frames: 14
Frame Time: 0.033333
-1.746666 0.206996 0.988107 91.686869 0.182827 88.564697 -0.580477 2.418920 2.892490 -0.873461 -6.057532 3.512437 4.124359 10.343882 -13.543870 0.000000 -0.000000 0.000000 0.436357 -2.081763 -3.691978 0.010657 1.018562 16.837333 2.665222 -6.785515 -17.053270 0.000000 -0.000000 0.000000 1.469006 -1.212330 11.059199 1.548457 -2.966121 -1.600356 0.089190 -1.800462 1.126990 2.398727 1.578497 -12.334239 -1.105197 -5.535241 4.679047 -25.797262 2.480144 -1.090357 -56.264168 -7.741884 10.615463 6.775859 -35.774860 12.981328 0.278239 -1.526338 2.350752 25.989532 1.800961 -2.738847 54.733563 3.042228 14.827573 -13.108438 26.083877 -0.354014 -4.042299 1.199129 0.557751 
-1.746356 0.205841 0.987122 91.115783 -0.159535 89.183723 -0.932833 2.154245 2.365767 -0.861252 -5.701638 3.345111 4.303408 10.806359 -13.163691 0.000000 -0.000000 0.000000 0.037899 -1.376275 -4.435278 0.273818 1.142342 16.942679 2.999363 -7.156723 -17.099395 0.000000 -0.000000 0.000000 1.085376 -1.370011 10.473904 1.316893 -2.787057 -1.626062 0.106177 -1.685667 1.269456 2.596261 1.606209 -12.473241 -1.107396 -5.613807 4.675588 -25.467170 2.611659 -0.800781 -56.904480 -7.364948 11.207683 6.311810 -34.783440 14.599848 -0.245268 -1.821752 2.037657 25.828942 1.576943 -2.652675 55.014622 2.916139 15.159487 -13.548388 26.175604 -0.127863 -4.073234 0.942823 -0.056892 
-1.744972 0.204343 0.985805 90.160725 -0.405937 89.662595 -1.060836 2.264621 2.300736 -0.931677 -5.288046 2.776757 4.303571 11.250062 -12.747886 0.000000 -0.000000 0.000000 -0.161544 -0.728099 -5.076555 0.318914 1.308197 17.128435 2.899560 -7.077030 -16.921716 0.000000 -0.000000 0.000000 0.714340 -1.329960 9.759835 1.182699 -2.405718 -1.450673 0.232706 -1.725872 1.241943 2.581076 1.780389 -12.212064 -1.149725 -5.290117 4.515642 -25.561888 2.691998 -0.536983 -57.141328 -6.712336 11.421669 5.702049 -33.775517 15.557540 -0.806936 -1.805459 2.447960 25.633265 1.512493 -2.110331 55.274554 3.097214 15.077035 -13.716947 26.066580 -0.100648 -4.024844 0.933264 -0.271905 
-1.743954 0.203410 0.985040 89.876792 -0.421537 89.772864 -1.032346 2.216472 2.350274 -0.873775 -5.102033 2.682041 4.137745 11.412272 -12.606282 0.000000 -0.000000 0.000000 -0.146215 -0.509878 -5.140326 0.385470 1.405587 17.068569 3.032390 -7.122191 -16.724874 0.000000 -0.000000 0.000000 0.649016 -1.289296 9.479284 1.081823 -2.368463 -1.101654 0.015909 -1.412331 1.631935 2.879433 1.563218 -12.667742 -0.790951 -6.300146 4.490308 -25.261751 2.453165 -0.419939 -57.808349 -6.745924 11.952321 5.134121 -32.287272 16.551365 -1.400151 -1.594777 3.292383 26.010635 1.134679 -2.741449 55.193433 2.828957 15.120259 -13.597612 26.253126 0.050677 -3.880981 0.979521 -0.321560 
-1.743349 0.202764 0.984826 89.817802 -0.419091 89.821599 -0.996758 2.223611 2.384688 -0.864082 -5.074845 2.654711 4.175839 11.482713 -12.572285 0.000000 -0.000000 0.000000 -0.108844 -0.444256 -5.129343 0.405576 1.421608 17.009766 3.005362 -7.119309 -16.621176 0.000000 -0.000000 0.000000 0.686203 -1.319568 9.405683 1.072345 -2.399825 -1.047765 -0.022681 -1.409739 1.619646 2.820743 1.571983 -12.595623 -0.801951 -6.218587 4.359340 -25.336983 2.391001 -0.276121 -58.019975 -6.533129 12.017211 4.872106 -31.517383 17.023051 -1.842984 -1.505921 3.518266 25.914434 1.109110 -2.661529 55.487304 2.752118 15.110851 -13.650315 26.316128 0.171186 -3.760136 0.964744 -0.476964 
-1.742557 0.201921 0.984632 89.761923 -0.384966 89.836474 -0.938391 2.313253 2.402339 -0.810370 -5.055785 2.711088 4.242463 11.540833 -12.615166 0.000000 -0.000000 0.000000 -0.028026 -0.415224 -5.069401 0.409381 1.394194 16.959028 2.905327 -7.024349 -16.558032 0.000000 -0.000000 0.000000 0.778407 -1.382184 9.433174 1.066053 -2.401883 -1.076394 -0.004280 -1.501418 1.496782 2.672102 1.631819 -12.427695 -0.867855 -5.784596 4.087519 -25.506325 2.478927 -0.213700 -58.212403 -6.069615 11.952454 4.546778 -30.769781 17.562213 -2.379014 -1.403376 3.678547 25.716755 1.161394 -2.305153 55.872478 2.755785 15.069082 -13.649233 26.371513 0.343500 -3.611215 1.040302 -0.623168 
-1.741889 0.201087 0.984300 89.772064 -0.330245 89.842272 -0.851493 2.340759 2.394129 -0.794702 -5.039017 2.826416 4.298102 11.588974 -12.646585 0.000000 -0.000000 0.000000 0.071359 -0.386959 -4.983110 0.425900 1.380115 16.864004 2.845402 -6.997318 -16.482888 0.000000 -0.000000 0.000000 0.854775 -1.374915 9.259605 1.062651 -2.388204 -0.874395 -0.040934 -1.472166 1.569212 2.614587 1.644869 -12.444007 -0.825253 -5.745105 3.934530 -25.558844 2.502051 -0.227807 -58.391763 -5.991180 11.941792 4.282956 -30.086955 17.905099 -2.653330 -1.295584 3.920745 25.726472 1.120814 -2.294008 56.160338 2.745113 15.088981 -13.553853 26.467435 0.586831 -3.527966 1.080240 -0.638797 
-1.741418 0.200094 0.984041 89.879609 -0.256511 89.880184 -0.730329 2.281698 2.299830 -0.799216 -5.014908 2.994844 4.356643 11.597951 -12.662045 0.000000 -0.000000 0.000000 0.207575 -0.368874 -4.884141 0.428085 1.307490 16.676867 2.750625 -7.033798 -16.382942 0.000000 -0.000000 0.000000 0.908315 -1.333677 9.093438 1.111614 -2.460381 -0.752943 -0.026407 -1.472589 1.606939 2.499107 1.620172 -12.348420 -0.799286 -5.649961 3.666644 -25.583500 2.434385 -0.147772 -58.527193 -5.846865 11.941526 4.214803 -29.714908 18.164749 -2.800985 -1.227202 4.039295 25.632387 1.140113 -2.132420 56.539006 2.774520 15.111322 -13.456121 26.652483 0.918600 -3.445908 1.094373 -0.718208 
-1.741273 0.199316 0.984170 89.962730 -0.238876 89.987522 -0.691277 2.148757 2.111940 -0.779496 -4.984607 3.139824 4.308606 11.674515 -12.654356 0.000000 -0.000000 0.000000 0.295717 -0.257320 -4.894622 0.438889 1.277268 16.512533 2.685223 -7.217330 -16.323508 0.000000 -0.000000 0.000000 0.953929 -1.357998 8.985301 1.120145 -2.424508 -0.885931 0.007144 -1.575031 1.460888 2.371618 1.643781 -12.195435 -0.997585 -5.522190 4.087489 -25.765557 2.491186 0.027285 -58.393907 -5.596363 11.905169 4.280509 -29.560923 18.113481 -2.909922 -1.360376 3.952170 25.682587 1.273507 -1.775933 56.840508 2.753874 15.290653 -13.496980 26.733315 1.008455 -3.410256 1.138300 -0.806342 
-1.740927 0.199157 0.984098 89.917893 -0.260286 89.961564 -0.677980 2.258470 2.133803 -0.763549 -5.063772 3.197040 4.413621 11.747786 -12.672576 0.000000 -0.000000 0.000000 0.293556 -0.222630 -4.819352 0.453789 1.239799 16.469779 2.536225 -7.233440 -16.280416 0.000000 -0.000000 0.000000 1.032004 -1.395226 9.099649 1.178828 -2.255573 -1.004427 0.247002 -2.000839 1.072260 1.912827 1.857866 -11.784850 -1.464961 -4.347595 3.998232 -26.510949 2.867758 -0.216090 -57.640815 -4.964303 11.517527 3.983187 -29.842988 18.256056 -2.862609 -1.344692 3.980449 25.412401 1.620852 -1.040248 57.180791 3.000974 15.341772 -13.335434 26.746226 1.184501 -3.446071 1.233428 -0.542640 
-1.740602 0.198951 0.983379 89.911029 -0.210318 89.990901 -0.541966 2.198184 2.203013 -0.823474 -4.958839 3.071760 4.340580 11.749936 -12.644849 0.000000 -0.000000 0.000000 0.367399 -0.172223 -4.799971 0.429675 1.209786 16.448380 2.621961 -7.262496 -16.274043 0.000000 -0.000000 0.000000 0.944519 -1.300783 8.798316 1.158019 -2.148910 -0.811937 0.079972 -1.514771 1.350631 2.205125 1.685124 -11.826253 -1.072337 -5.428936 4.329511 -25.841526 2.609908 -0.066659 -58.053311 -5.500312 11.833384 4.296908 -29.815356 17.901794 -2.579814 -1.336441 3.969973 25.904568 1.349227 -1.584013 57.083771 2.715851 15.629339 -13.073130 27.159512 1.557223 -3.328798 1.289945 -0.630676 
-1.740088 0.198662 0.982800 89.801796 -0.182982 90.031374 -0.426201 2.235295 2.336460 -0.903892 -4.882160 2.851570 4.292845 11.735183 -12.643825 0.000000 -0.000000 0.000000 0.458566 -0.048283 -4.779651 0.347489 1.206071 16.390421 2.631389 -7.289609 -16.219254 0.000000 -0.000000 0.000000 0.938235 -1.285538 8.495174 1.141034 -2.023073 -0.702685 0.035464 -1.341023 1.433176 2.209453 1.700980 -11.726806 -0.952465 -5.637573 4.369921 -25.623305 2.486440 0.058568 -58.071245 -5.757741 11.820354 4.514838 -29.957538 17.554075 -2.391936 -1.371228 3.738118 25.956255 1.332490 -1.638884 57.383504 2.736532 15.841116 -12.952341 27.449199 1.983848 -3.229114 1.361817 -0.705492 
-1.740011 0.198823 0.982521 89.976840 -0.156753 90.024991 -0.370254 2.156881 2.348794 -0.928950 -4.938568 2.851705 4.278957 11.692084 -12.689748 0.000000 -0.000000 0.000000 0.511839 -0.094900 -4.652187 0.293862 1.114477 16.211214 2.617106 -7.347548 -16.131631 0.000000 -0.000000 0.000000 1.016831 -1.341063 8.424908 1.155287 -2.081979 -0.773189 0.029701 -1.347023 1.375229 2.131067 1.715102 -11.590336 -0.966133 -5.605979 4.472089 -25.619107 2.409465 0.148857 -57.896641 -5.924015 11.689628 4.708894 -30.183371 17.177749 -2.275993 -1.303461 3.615625 25.945939 1.457112 -1.519246 57.588831 2.792952 16.001130 -12.895926 27.745559 2.245905 -3.141400 1.410664 -0.639410 
-1.739674 0.198957 0.982188 90.085336 -0.125796 89.989094 -0.299837 2.142780 2.439824 -0.965088 -5.008979 2.791289 4.268609 11.659418 -12.721202 0.000000 -0.000000 0.000000 0.565072 -0.156347 -4.476818 0.249961 1.086814 16.011585 2.578575 -7.384763 -16.075337 0.000000 -0.000000 0.000000 1.083087 -1.369020 8.235731 1.177693 -2.119438 -0.748764 0.028246 -1.349693 1.337707 2.051885 1.760035 -11.342835 -0.987253 -5.533894 4.630591 -25.583113 2.300371 0.223676 -57.746195 -6.123830 11.548157 4.955025 -30.406289 16.710546 -2.142845 -1.215968 3.487888 25.940942 1.578996 -1.425227 57.713941 2.838615 16.134706 -12.853992 28.104956 2.456161 -3.083745 1.437055 -0.599313 
